<svg xmlns="http://www.w3.org/2000/svg" width="226" height="229" viewBox="0 0 226 229"><g><g><g><path fill="#fff" d="M113.327 27.186c-46.926 0-85.106 38.177-85.106 85.097 0 46.94 38.18 85.108 85.106 85.108 46.936 0 85.108-38.169 85.108-85.108 0-46.92-38.172-85.097-85.108-85.097zm0 2.371c45.693 0 82.737 37.031 82.737 82.726 0 45.694-37.044 82.74-82.737 82.74-45.687 0-82.73-37.046-82.73-82.74 0-45.695 37.043-82.726 82.73-82.726"/></g><g><path fill="#fff" d="M2.45 116.79c-.53.19-1.117.316-1.762.332 2.385 56.436 46.456 102.27 102.146 107.437-.238-.62-.41-1.217-.462-1.819-54.594-5.375-97.685-50.497-99.923-105.95z"/></g><g><path fill="#fff" d="M226 115.968a5.602 5.602 0 0 1-1.681.274c-.035 0-.067-.017-.104-.017-1.956 55.72-45.142 101.122-99.93 106.515-.053.602-.218 1.2-.468 1.808 56.075-5.194 100.339-51.615 102.183-108.58z"/></g><g><g><path fill="#fff" d="M25.342 71.92c-.26.221-.37.232-.75.045-.951-.478-1.955-1.058-2.225-1.213-.25-.153-.413-.294-.346-.433.074-.158.245-.097.379-.03.223.116.623.227.958.287 1.473.25 2.446-.538 2.973-1.61.774-1.557.096-2.845-.817-3.3-.846-.424-1.777-.554-3.612.323l-1.019.492c-2.433 1.165-3.97 1.225-5.377.524-1.898-.94-2.48-3.212-1.282-5.618.558-1.123 1.085-1.768 1.43-2.156.115-.141.213-.201.33-.141.223.116.693.427 2.044 1.098.38.192.49.311.422.452-.056.116-.183.116-.391.017-.163-.082-.737-.257-1.366-.116-.462.1-1.228.342-1.788 1.464-.638 1.279-.272 2.427.759 2.945.795.4 1.607.292 3.406-.6l.601-.305c2.618-1.314 4.178-1.466 5.827-.649 1.005.491 2.007 1.468 2.201 3.122.129 1.137-.201 2.186-.654 3.105-.498 1.002-1.004 1.717-1.703 2.297z"/></g><g><path fill="#fff" d="M26.895 51.517c-2.361-1.743-2.801-2.06-3.321-2.397-.55-.357-.893-.419-1.38.016-.124.098-.336.357-.492.573-.13.172-.233.242-.335.163-.11-.087-.06-.212.109-.444.313-.424.663-.863.946-1.254.311-.388.594-.737.75-.956.373-.499 2.647-3.591 2.848-3.903.193-.312.344-.583.4-.735.045-.091.067-.216.127-.298.05-.074.127-.045.208.01.105.085.238.298.917.87.145.131.806.666.97.838.068.076.135.17.053.28-.074.113-.177.082-.318-.02-.113-.079-.39-.26-.635-.322-.356-.096-.66-.08-1.322.629-.23.243-1.462 1.855-1.689 2.167-.056.076-.034.141.078.226l3.932 2.895c.11.085.185.116.252.02.25-.346 1.569-2.13 1.8-2.513.245-.396.37-.664.317-.916-.043-.201-.072-.32-.02-.397.05-.067.117-.085.205-.02.1.065.297.312 1.044.962.304.241.891.75 1.002.83.117.09.29.217.195.357-.085.101-.174.096-.244.036-.174-.102-.374-.247-.613-.348-.364-.156-.757-.105-1.25.424-.242.272-1.397 1.797-1.67 2.169-.06.081-.01.14.085.208l1.23.91c.526.382 1.946 1.454 2.408 1.773 1.101.765 1.518.685 2.683-.895.297-.415.78-1.069.891-1.607.113-.545-.072-.967-.632-1.55-.148-.151-.19-.233-.11-.343.09-.122.217-.03.373.085.355.263 1.32 1.169 1.576 1.47.328.407.221.554-.208 1.139-.863 1.167-1.524 1.998-2.03 2.656-.528.647-.9 1.12-1.242 1.587-.125.172-.38.516-.64.897-.259.358-.529.786-.757 1.098-.149.2-.275.275-.388.19-.072-.05-.072-.145.06-.335.172-.238.283-.444.357-.605.165-.357-.123-.685-.527-1.088-.595-.556-1.83-1.462-3.256-2.514z"/></g><g><path fill="#fff" d="M41.979 38.482c-.062.048-.11.02-.149-.051l-1.933-4.673c-.045-.072-.074-.166-.038-.206.045-.042.127.02.194.063l4.511 2.294c.062.018.082.08.007.145zm3.522-1.975c.076-.06.14-.075.239-.037l3.843 1.86c.23.1.255.327.177.441-.125.153-.156.234-.08.314.087.101.26-.055.526-.281 1.16-1.024 2.194-1.99 2.7-2.464.52-.493.624-.632.52-.75-.09-.094-.178-.049-.29.06-.171.156-.394.344-.648.5-.364.201-.958.388-2.683-.379-2.907-1.31-10.442-4.848-11.508-5.306-.445-.192-.643-.243-.771-.122-.142.127-.08.368.136.932l4.621 12.07c.379.968.556 1.702-.007 2.39-.103.122-.29.32-.415.445-.112.1-.141.186-.062.266.106.11.218.061.403-.109.728-.687 1.47-1.451 1.62-1.603.445-.406 1.094-.928 1.54-1.348.155-.152.215-.26.108-.368-.082-.085-.149-.07-.317.085l-.21.196c-.437.413-.734.344-.973.09-.163-.17-.406-.572-.594-1.061l-1.04-2.649c-.06-.11-.053-.161.014-.226z"/></g><g><path fill="#fff" d="M58.523 25.707c.998 1.56 1.77 2.778 2.29 3.419.352.438.669.734 1.207.49.244-.108.623-.31.853-.452.216-.134.304-.123.357-.044.072.113-.007.232-.254.388-1.025.654-2.089 1.26-2.505 1.53-.424.267-1.419.969-2.042 1.365-.223.142-.359.181-.447.056-.053-.085-.013-.172.162-.286a3.04 3.04 0 0 0 .542-.446c.29-.266.142-.679-.094-1.197-.35-.736-1.129-1.953-2.127-3.52l-1.819-2.87c-1.578-2.477-1.866-2.935-2.234-3.435-.382-.54-.683-.714-1.291-.482-.149.046-.439.205-.669.357-.156.102-.3.141-.357.04-.083-.13.022-.245.276-.397.422-.273.905-.554 1.331-.826.43-.252.815-.478 1.04-.62.623-.398 3.931-2.496 4.294-2.755.308-.21.5-.335.632-.487.076-.091.112-.21.194-.263.067-.044.156-.011.208.07.074.113.12.365.337.823.087.17.665 1.152.758 1.368.063.138.095.263-.017.333-.118.076-.201.015-.326-.156-.081-.135-.252-.393-.493-.558-.259-.157-.757-.18-1.39.19l-2.541 1.546c-.096.072-.11.145 0 .328l2.596 4.073c.058.101.103.135.207.076l2.074-1.345c.275-.177.505-.322.721-.483.297-.212.482-.422.513-.734.022-.152.007-.237.114-.297.063-.045.123-.016.19.08.06.101.24.56.506 1.092.177.348.623 1.123.692 1.234.096.15.2.311.036.418-.096.06-.201-.041-.275-.152a2.329 2.329 0 0 0-.423-.444c-.224-.168-.654-.31-1.204-.054-.439.212-2.164 1.304-2.439 1.482-.081.049-.094.109-.022.22z"/></g><g><path fill="#fff" d="M80.095 20.45c-3.478 1.302-6.674-.906-8.078-4.673-1.69-4.513.25-6.55 2.333-7.332 2.973-1.112 6.243.54 7.76 4.593 1.953 5.227-.75 6.937-2.015 7.412zm-.422 1.192c4.598-1.716 6.27-6.073 4.718-10.222-1.548-4.149-5.33-5.725-9.842-4.038-5.435 2.03-5.983 6.8-4.824 9.89 1.198 3.201 4.75 6.314 9.948 4.37z"/></g><g><path fill="#fff" d="M106.068 8.462c.675 5.536-2.35 6.57-3.696 6.726-3.687.453-6.274-2.442-6.754-6.435-.584-4.773 1.78-6.304 3.98-6.576 3.147-.379 5.95 1.984 6.47 6.285zM93.043 9.67c.41 3.393 3.138 7.25 8.64 6.578 4.872-.594 7.519-4.435 6.984-8.824-.536-4.396-3.842-6.818-8.623-6.229-5.75.696-7.401 5.196-7 8.475z"/></g><g><path fill="#fff" d="M122.203 6.219c.172-1.517.364-3.183.46-3.83.023-.212.092-.304.277-.364.158-.055.877-.03 1.26.01 1.5.171 3.66.651 5.228 2.544.735.88 1.576 2.576 1.302 5.015-.232 1.975-.81 3.676-2.161 4.593-1.266.864-2.62 1.101-4.573.875-1.518-.172-2.223-.66-2.435-1.053-.123-.226-.07-1.007-.041-1.485.025-.368.174-1.848.41-3.883zm-2.825 3.42c-.2 1.758-.371 3.278-.563 4.073-.132.549-.281.962-.678.993-.17.016-.407.03-.697 0-.232-.031-.312.02-.321.12-.016.137.112.202.359.231.384.047.891.06 1.328.118.462.027.884.08 1.092.103.486.053 1.154.187 1.875.328.72.142 1.5.294 2.192.374 3.553.402 5.71-.734 6.69-1.531 1.206-.977 2.432-2.7 2.706-5.122.26-2.286-.453-3.977-1.3-5.084-1.843-2.433-5.05-2.8-7.449-3.078-1.154-.127-2.371-.212-2.966-.275-.538-.067-1.74-.263-2.755-.375-.294-.035-.428-.01-.442.127-.015.13.09.18.304.212.27.029.598.085.747.14.615.207.735.534.695 1.19-.029.619-.094 1.157-.43 4.072z"/></g><g><path fill="#fff" d="M153.17 8.036c.185-.27.366-.386.505-.315.142.061.201.195.229.753l.396 11.954 9.255-7.752c.268-.212.416-.32.577-.243.156.065.189.292.075.681l-3.254 11.5c-.344 1.182-.393 1.773.06 2.166a3.79 3.79 0 0 0 1.014.674c.158.065.272.14.227.246-.07.142-.297.1-.544-.014-.447-.196-2.853-1.325-3.54-1.7-.382-.215-.466-.313-.42-.42.038-.092.132-.112.28-.107.12.011.276-.19.432-.72l2.395-8.132-.076-.029-7.372 6.118c-.78.649-.937.765-1.102.694-.155-.07-.177-.498-.215-1.158-.06-1.003-.237-4.32-.232-4.911.016-.437-.103-2.993-.125-4.59l-.072-.03-4.008 6.453a9.422 9.422 0 0 0-.433.807c-.149.328.015.594.285.797.28.215.52.346.697.42.134.067.245.152.208.248-.074.156-.244.116-.512 0-.743-.333-1.51-.744-1.83-.884-.326-.157-1.196-.48-1.76-.737-.18-.076-.296-.176-.233-.332.04-.092.165-.076.337.006.141.06.266.114.558.179.534.116.987-.507 1.344-1.067z"/></g><g><path fill="#fff" d="M174.1 25.403c1.763-2.35 2.084-2.785 2.424-3.301.357-.549.426-.891-.007-1.38a3.709 3.709 0 0 0-.572-.499c-.172-.127-.238-.226-.156-.337.081-.105.208-.056.446.122.418.306.855.657 1.24.94.388.322.738.605.95.765.493.367 3.578 2.67 3.884 2.87.316.191.585.347.734.409.089.045.216.065.29.12.081.06.052.135-.007.211-.082.112-.298.237-.877.911-.127.145-.669.801-.84.966-.077.062-.173.132-.282.053-.107-.08-.083-.176.022-.317.08-.113.26-.383.328-.625.096-.368.081-.665-.625-1.328-.24-.234-1.844-1.477-2.149-1.71-.081-.053-.141-.033-.223.072l-2.926 3.917c-.076.112-.114.18-.016.252.339.253 2.118 1.58 2.497 1.822.391.243.661.368.915.317.199-.045.318-.074.4-.014.06.047.081.11.014.2-.065.097-.32.3-.965 1.039-.254.302-.76.886-.839.993-.092.125-.217.295-.357.19-.112-.08-.096-.167-.04-.243.107-.17.256-.368.357-.603.149-.363.113-.761-.413-1.248-.27-.254-1.794-1.412-2.165-1.687-.081-.06-.143-.011-.208.074l-.915 1.229c-.393.523-1.471 1.938-1.79 2.398-.768 1.093-.69 1.51.884 2.687.4.302 1.056.78 1.596.902.538.11.97-.074 1.547-.623.163-.147.241-.188.35-.107.12.09.03.216-.089.371-.268.354-1.174 1.31-1.478 1.568-.41.317-.55.217-1.14-.223-1.157-.865-1.993-1.53-2.646-2.048a41.292 41.292 0 0 0-1.568-1.25c-.177-.125-.51-.376-.898-.637-.352-.268-.781-.535-1.087-.767-.209-.15-.272-.277-.2-.387.06-.08.156-.08.341.061.234.176.44.28.601.35.36.172.694-.114 1.087-.513.566-.594 1.479-1.817 2.542-3.237z"/></g><g><path fill="#fff" d="M184.655 42.663c-1.107 1.023-1.322 1.543-1.166 1.926.126.328.356.614.558.84.14.162.192.278.103.348-.12.105-.261 0-.437-.2-.833-.943-1.293-1.568-1.541-1.84-.11-.13-.756-.779-1.42-1.534-.162-.187-.267-.328-.133-.448.083-.07.194-.016.32.134.165.187.41.439.646.59.445.27.923-.035 2.193-1.133l8.677-7.381c.29-.254.525-.388.652-.237.145.155.067.452.022.93-.035.338-.422 4.584-.667 8.556-.12 1.853-.484 5.648-.498 6.101l.058.073 6.391-5.872c.872-.79 1.037-1.163.879-1.641-.105-.292-.419-.64-.587-.846-.154-.172-.163-.272-.076-.343.112-.107.268.04.46.261.665.756 1.228 1.49 1.498 1.797.142.156.667.67 1.29 1.38.172.19.285.352.163.454-.088.07-.2.025-.357-.15a1.922 1.922 0 0 0-.429-.4c-.47-.302-.877-.144-1.703.55l-9.303 7.886c-.32.277-.5.337-.618.207-.14-.163-.137-.475-.114-.776.069-1.681.342-5.212.505-8.036.187-2.957.544-6.124.587-6.628l-.036-.04z"/></g><g><path fill="#fff" d="M203.729 56.925c2.596-1.38 3.078-1.636 3.605-1.957.56-.344.757-.627.58-1.25-.036-.156-.176-.46-.304-.696-.098-.19-.12-.313 0-.373.12-.063.215.042.356.294.475.905.997 2.009 1.272 2.516.216.415.839 1.462 1.167 2.074.134.252.163.399.043.46-.12.066-.206-.021-.297-.192a2.755 2.755 0 0 0-.319-.469c-.33-.411-.69-.398-1.3-.114-.566.256-1.05.513-3.642 1.888l-2.388 1.268c-2.474 1.314-3.255 2.366-3.493 3.566-.224 1.101.127 1.922.432 2.505.4.752 1.132 1.542 2.179 1.87 1.433.438 2.995-.328 4.756-1.263l2.134-1.132c2.593-1.38 3.069-1.633 3.598-1.962.562-.34.764-.622.585-1.249-.036-.155-.172-.453-.273-.64-.1-.19-.12-.31 0-.372.117-.064.213.036.342.27.46.87.978 1.973.987 1.99.114.204.736 1.25 1.093 1.927.121.237.157.376.036.436-.125.065-.208-.02-.319-.22a2.544 2.544 0 0 0-.319-.468c-.328-.419-.69-.403-1.308-.116-.56.255-1.032.509-3.634 1.888l-1.823.97c-1.902 1.002-4.005 1.89-6.004 1.108-1.68-.658-2.521-1.787-3.116-2.9-.476-.905-1.3-2.566-.833-4.41.32-1.289 1.243-2.608 3.716-3.928z"/></g></g><g><path fill="#fff" d="M117.277 224.56a3.53 3.53 0 1 1-7.063 0 3.53 3.53 0 1 1 7.063 0z"/></g><g><path fill="#fff" d="M217.549 96.77a3.535 3.535 0 0 1-7.07 0 3.533 3.533 0 0 1 3.533-3.53 3.534 3.534 0 0 1 3.537 3.53z"/></g><g><path fill="#fff" d="M17.01 96.77a3.528 3.528 0 0 1-3.531 3.534 3.537 3.537 0 0 1-3.538-3.535 3.535 3.535 0 0 1 3.538-3.529 3.527 3.527 0 0 1 3.531 3.53z"/></g><g><path fill="#fff" d="M69.69 199.85c0 .972-.791 1.77-1.77 1.77a1.77 1.77 0 0 1 0-3.539c.979 0 1.77.792 1.77 1.768z"/></g><g><path fill="#fff" d="M129.451 209.857c0 .973-.795 1.761-1.772 1.761a1.764 1.764 0 0 1-1.764-1.76c0-.98.791-1.774 1.764-1.774.977 0 1.772.793 1.772 1.773z"/></g><g><g><g><path fill="#fff" d="M22.779 128.295c.081-.022.155.025.18.107l.454 1.817c.02.085-.017.155-.107.175l-7.503 1.899c-.048.009-.07.045-.056.101l1.078 4.294c.024.087-.023.156-.105.172l-1.56.397a.144.144 0 0 1-.177-.105l-1.6-6.34a.14.14 0 0 1 .103-.177z"/></g><g><path fill="#fff" d="M20.907 146.426c-.716.016-1.272-.357-1.547-1.132-.268-.781-.06-1.415.513-1.85.291-.22.72-.422 1.94-.844 1.217-.419 1.687-.533 2.06-.544.71-.005 1.27.357 1.538 1.138.273.78.06 1.415-.506 1.843-.29.231-.73.423-1.945.851-1.223.424-1.692.538-2.053.538zm-3.323-.518c.57 1.661 1.783 2.709 3.455 2.672.714-.012 1.256-.14 2.638-.623 1.384-.473 1.882-.71 2.453-1.143 1.34-1.013 1.638-2.578 1.064-4.234-.58-1.661-1.783-2.703-3.457-2.669-.721.015-1.256.14-2.638.614-1.384.484-1.888.716-2.46 1.149-1.332 1.007-1.634 2.578-1.055 4.234z"/></g><g><path fill="#fff" d="M27.424 154.448c-.022-.056-.006-.096.047-.121l1.92-.902c.062-.02.1-.01.123.047l.654 1.384c.348.75.169 1.37-.482 1.67-.655.308-1.264.056-1.607-.694zm-3.714 1.732c-.033-.05-.017-.09.036-.112l2.08-.971c.052-.026.09-.011.112.04l.698 1.496c.382.806.148 1.43-.535 1.752-.7.323-1.322.09-1.696-.705l-.695-1.5zm-2.39-1.37c-.08.04-.109.12-.072.196l1.612 3.44c.913 1.965 2.31 2.758 4.073 1.937 1.07-.501 1.518-1.454 1.458-2.157l.03-.017c.61.448 1.423.62 2.4.167 1.42-.667 1.949-2.03 1.02-4.01l-1.66-3.532c-.036-.081-.11-.107-.192-.07z"/></g><g><path fill="#fff" d="M27.817 165.581c.014-.081.09-.163.203-.141l1.666.286c.087.01.133.09.125.183-.097.84-.047 1.866.513 2.768.542.892 1.261 1.144 1.859.776.49-.308.609-.8.125-1.899l-.223-.493c-.831-1.873-.625-3.328.863-4.244 1.54-.957 3.293-.408 4.43 1.434.697 1.129 1.01 2.386.907 3.439 0 .107-.045.147-.17.138l-1.593-.073c-.098-.009-.14-.06-.149-.15.026-.911-.148-1.67-.58-2.377-.46-.75-1.086-.906-1.612-.58-.483.304-.574.84-.112 1.899l.223.494c.85 1.905.623 3.318-.892 4.25-1.523.94-3.344.493-4.712-1.719-.817-1.328-1.094-2.94-.871-3.99z"/></g><g><path fill="#fff" d="M35.453 179.051c-.052-.063-.045-.145.022-.203l6.05-4.823c.043-.034.05-.081.014-.126l-1.582-1.984c-.053-.07-.045-.147.022-.207l1.263-1.002c.068-.056.148-.045.2.026l4.626 5.806c.05.07.043.153-.024.201l-1.257 1.01c-.074.052-.154.04-.208-.03l-1.584-1.98c-.025-.054-.072-.054-.118-.018l-6.05 4.827c-.068.049-.147.038-.209-.033z"/></g><g><path fill="#fff" d="M48.785 179.73c.062-.06.143-.06.21 0l4.604 4.483a.151.151 0 0 1 .004.206l-1.086 1.11c-.058.064-.14.064-.206 0l-3.093-3.014c-.045-.036-.081-.04-.128.007l-1.365 1.397c-.04.04-.04.085.006.129l2.573 2.503c.067.062.067.149.007.21l-1.078 1.1c-.06.067-.143.067-.209 0l-2.572-2.505c-.045-.046-.08-.046-.125 0l-1.428 1.465c-.038.038-.038.082 0 .12l3.098 3.015c.06.061.07.141.01.21l-1.086 1.107a.139.139 0 0 1-.206.003l-4.602-4.487c-.069-.06-.069-.142-.007-.205z"/></g><g><path fill="#fff" d="M59.648 192.869c-.445.609-1.161.68-1.824.194l-1.424-1.047c-.045-.035-.053-.075-.016-.12l1.344-1.833c.033-.051.076-.053.12-.026l1.427 1.047c.669.49.81 1.183.373 1.785zm-2.201 6.812c.08.06.165.02.185-.076l.706-4.306c1.176.27 2.31-.142 3.055-1.153 1.063-1.444.723-3.266-.935-4.476l-3.22-2.361c-.066-.05-.155-.035-.208.036l-5.656 7.714c-.052.071-.036.156.038.205l1.5 1.098c.075.056.156.045.209-.025l2.08-2.84c.038-.045.081-.056.126-.016l1.084.785-.75 3.935c-.02.107-.013.167.1.244z"/></g><g><path fill="#fff" d="M79.033 199.987c.028-.083.102-.116.183-.09l6.077 2.101c.08.027.116.105.089.183l-.508 1.466c-.038.081-.112.123-.194.092l-4.08-1.417c-.052-.012-.088 0-.112.058l-.676 1.957c-.014.056 0 .096.053.116l3.397 1.18c.089.023.127.094.096.179l-.507 1.45c-.027.086-.102.119-.183.093l-3.397-1.18c-.055-.012-.096 0-.113.062l-1.219 3.51c-.02.078-.096.11-.175.085l-1.781-.616c-.08-.024-.116-.096-.087-.183z"/></g><g><path fill="#fff" d="M89.819 203.331c.012-.092.088-.137.17-.115l1.822.424c.087.018.125.088.109.17l-2.154 9.323c-.022.088-.096.132-.18.114l-1.82-.426c-.09-.023-.132-.087-.109-.168z"/></g><g><path fill="#fff" d="M95.268 213.193a.165.165 0 0 1 .015-.24l1.262-1.12c.067-.059.156-.052.223.012.594.597 1.426 1.199 2.48 1.331 1.044.124 1.682-.28 1.772-.965.065-.578-.246-.984-1.406-1.287l-.521-.141c-1.984-.513-2.995-1.59-2.787-3.32.218-1.796 1.74-2.822 3.894-2.557 1.318.163 2.498.697 3.255 1.437.085.063.093.125 0 .219l-1.047 1.196c-.074.072-.149.072-.216.025-.697-.59-1.397-.937-2.22-1.033-.88-.11-1.385.283-1.457.895-.07.565.297.973 1.42 1.274l.513.13c2.02.524 2.987 1.58 2.77 3.352-.216 1.774-1.709 2.918-4.281 2.607-1.553-.187-2.988-.982-3.669-1.815z"/></g><g><path fill="#fff" d="M108.533 205.94c0-.092.06-.152.149-.152l1.866-.014c.089 0 .148.056.148.145l.024 3.7c.007.057.038.086.096.082l3.268-.025c.062 0 .093-.03.085-.085l-.023-3.698c0-.092.06-.152.148-.152l1.876-.014c.087 0 .146.058.146.146l.062 9.575a.138.138 0 0 1-.141.145l-1.874.015c-.09 0-.15-.058-.15-.147l-.03-3.803c0-.054-.028-.085-.091-.085l-3.269.03c-.05 0-.089.037-.089.086l.028 3.8c0 .09-.057.15-.145.15l-1.874.014c-.09 0-.15-.06-.15-.145z"/></g><g><path fill="#fff" d="M140.354 204.723c.203.721-.187 1.326-.982 1.542l-1.709.47c-.05.015-.088-.007-.105-.06l-.601-2.197c-.013-.052 0-.096.06-.107l1.703-.467c.8-.223 1.433.107 1.634.819zm3.971 5.958c.096-.028.118-.12.049-.195l-2.926-3.223c.937-.754 1.33-1.897.996-3.118-.476-1.73-2.12-2.585-4.096-2.042l-3.85 1.05c-.083.023-.126.093-.106.178l2.538 9.226c.021.085.087.123.176.1l1.806-.49c.083-.029.128-.1.105-.18l-.935-3.394c-.016-.06.007-.095.065-.109l1.296-.36 2.614 3.027c.067.085.125.114.255.085z"/></g><g><path fill="#fff" d="M152.514 205.83c-.764.315-1.404.137-1.873-.404-.238-.28-.46-.703-.951-1.902-.482-1.202-.624-1.658-.656-2.026-.05-.71.295-1.286 1.058-1.601.766-.312 1.413-.136 1.875.413.235.277.462.704.951 1.896.491 1.196.625 1.66.645 2.02.053.723-.283 1.296-1.049 1.604zm-3.574.917c1.085 1.28 2.668 1.492 4.291.828 1.624-.662 2.607-1.923 2.48-3.59-.052-.724-.208-1.255-.757-2.614-.56-1.348-.824-1.837-1.286-2.38-1.078-1.288-2.67-1.506-4.29-.836-1.627.665-2.609 1.928-2.482 3.598.052.712.208 1.24.766 2.602.55 1.352.81 1.84 1.278 2.392z"/></g><g><path fill="#fff" d="M163.674 202.489c-.076.044-.156.022-.203-.06l-1.82-3.312-5.381-3.652c-.06-.056-.067-.127.022-.18l1.679-.923c.09-.042.172-.042.263.029l3.32 2.277.037-.02-.14-4.03c-.009-.106.03-.178.123-.227l1.624-.892c.096-.056.172-.01.164.071l.185 6.493 1.828 3.326c.038.078.015.156-.06.198z"/></g><g><path fill="#fff" d="M172.184 192.929l-1.087-3.464.04-.026 2.925 2.146zm-.69 4.86c.03.082.088.115.17.055l1.569-1.125c.08-.062.105-.13.065-.227l-.542-1.73 2.846-2.045 1.471 1.072c.086.06.158.06.241.006l1.553-1.118c.081-.06.072-.127 0-.176l-8.325-5.817c-.076-.054-.156-.07-.248-.011l-1.5 1.083c-.089.064-.096.142-.074.232z"/></g><g><path fill="#fff" d="M176.457 182.017c-.06-.065-.052-.147.008-.207l1.375-1.27c.069-.06.148-.06.21.008l5.261 5.665c.036.038.082.038.125 0l3.236-3.004c.065-.063.148-.063.206 0l1.102 1.178c.06.067.052.152-.007.212l-4.782 4.438c-.066.06-.148.06-.208-.01z"/></g><g><path fill="#fff" d="M192.41 172.082c-1.243-.88-1.622-1.225-2.013-1.772-1.013-1.364-.939-2.88.078-4.31.976-1.386 2.357-1.93 3.808-1.593.08.011.125.076.096.163l-.35 1.721c-.013.1-.081.14-.176.125-.686-.141-1.348-.029-1.831.654-.453.64-.41 1.285.023 1.86.223.302.482.545 1.634 1.36 1.144.81 1.457.97 1.823 1.081.683.218 1.31.046 1.755-.594.49-.685.368-1.35.008-1.944-.047-.085-.024-.166.056-.21l1.51-.902c.075-.054.15-.042.187.034.801 1.26.75 2.74-.224 4.125-1.017 1.435-2.419 2.008-4.042 1.513-.649-.188-1.094-.43-2.343-1.311z"/></g><g><path fill="#fff" d="M200.02 156.16c.669.343.857 1.031.477 1.769l-.814 1.57c-.02.055-.056.066-.108.038l-2.03-1.036c-.052-.03-.068-.07-.037-.12l.811-1.567c.372-.74 1.04-.99 1.701-.654zm7.084 1.096c.044-.088-.014-.17-.112-.17l-4.365-.014c.084-1.203-.502-2.261-1.625-2.841-1.6-.82-3.339-.192-4.275 1.632l-1.82 3.55c-.04.08-.016.155.06.2l8.525 4.365c.081.042.155.022.193-.06l.86-1.667c.04-.074.008-.155-.062-.2l-3.138-1.606c-.055-.022-.07-.065-.038-.116l.61-1.192 3.997.114c.112.006.172-.01.239-.13z"/></g><g><path fill="#fff" d="M206.733 148.11l-2.914-2.168.017-.045 3.63.022zm2.275 4.333c.073.056.134.052.17-.055l.62-1.828c.025-.096.002-.16-.085-.22l-1.459-1.078 1.124-3.33 1.815.005c.105 0 .165-.04.2-.136l.608-1.817c.03-.1-.013-.141-.101-.141l-10.157.177c-.096 0-.163.04-.2.136l-.586 1.757c-.038.1 0 .176.076.232z"/></g><g><path fill="#fff" d="M212.001 136.003c-.013.055-.042.082-.101.071l-2.254-.404c-.06-.004-.082-.043-.074-.1l.29-1.621c.155-.87.706-1.248 1.449-1.118.757.136 1.13.68.982 1.547l-.292 1.625zm-4.044-.719c-.007.06-.043.082-.096.07l-2.103-.372c-.058-.01-.072-.046-.065-.106l.264-1.505c.149-.812.642-1.214 1.36-1.089.717.127 1.059.685.91 1.497zm5.205 3.212c.09.02.156-.03.17-.118l.671-3.739c.377-2.125-.313-3.585-2.225-3.922-1.16-.207-2.072.317-2.431.926l-.027-.004c-.247-.717-.81-1.326-1.864-1.51-1.55-.278-2.769.532-3.147 2.682l-.683 3.835a.134.134 0 0 0 .11.173z"/></g></g></g><g><path fill="#fff" d="M116.963 131.422l.268.266c.082.082.325-.011.537-.065-.256-.076-.508-.172-.76-.247-.021.015-.045.046-.045.046z"/></g><g><path fill="#fff" d="M114.711 82.812a2.283 2.283 0 0 0-1.62.703 2.205 2.205 0 0 1-.78-1.65 2.203 2.203 0 0 1 4.407-.035 2.192 2.192 0 0 1-.567 1.484 2.18 2.18 0 0 0-1.44-.502zm15.372 22.516s-.311-1.053-.64.333c-.334 1.41-1.849 4.203-3.909 5.077-2.06.875 1.196.773 1.68.648.505-.156.512.529-.828 1.683-1.321 1.138-4.867 3.55-7.25 1.997 0 0-1.555-.754-1.593-3.12-.031-2.357-.319-19.79-.319-19.79l2.29-.02s.652.519 1.53-.302c.861-.84 2.468-.509 3.039-.634.582-.127 1.064-3.152-.187-3.313-1.233-.17-2.42-.499-2.6-.595-.162-.105-1.113-.623-1.782-.297l-2.497.02-.009-1.574a4.357 4.357 0 0 0 1.894-3.631c-.011-1.85-1.18-3.415-2.81-4.045l-.156-48.112h-2.844l.155 48.023c-1.808.552-3.121 2.225-3.109 4.208a4.4 4.4 0 0 0 2.33 3.838l.008 1.328-2.425.016c-.679-.319-1.666.232-1.844.337-.17.096-1.351.455-2.596.64-1.232.186-.697 3.202-.125 3.322.567.118 2.178-.24 3.064.57.875.805 1.536.281 1.536.281l2.283-.02s.014 17.433.021 19.793c.01 2.368-1.529 3.147-1.529 3.147-2.371 1.587-5.947-.753-7.299-1.877-1.362-1.117-1.362-1.813-.857-1.66.493.11 3.748.155 1.674-.682-2.074-.83-3.634-3.604-3.991-5.008-.357-1.366-.654-.313-.654-.313-.486 1.214-.698 2.536-.698 3.846l-69.958.223c.085.955.19 1.908.322 2.859l69.948-.241c.065.291.141.58.223.851.697 2.325 1.074 1.013 1.3.372.227-.66.415-.442.415-.442.669 2.38 4.707 5.966 8.146 7.28 1.638.619 2.984 1.6 3.957 2.468l.237 73.113h2.855l-.24-72.676c.958-.96 2.469-2.234 4.402-3 3.402-1.375 7.388-5.026 8.02-7.417 0 0 .194-.218.431.436.232.63.623 1.94 1.287-.405.06-.22.117-.45.16-.676l65.294-.212v-2.845l-64.987.207c-.01-1.37-.232-2.748-.765-4.01z"/></g><g><g><path fill="#fff" d="M146.146 70.657c-3.22-.183-5.709-1.094-6.446-3.743.493 5.62 1.473 10.751 8.163 10.193.015-2.73-.126-5.312-1.717-6.45z"/></g><g><path fill="#fff" d="M146.642 69.41c-2.134-6.77.196-14.442 5.249-16.362"/></g><g><path fill="#fff" d="M148.376 70.657c2.209-5.163 6.667-8.058 14.168-7.906-1.423-4.129-6.676-11.874-12.148-7.971-3.754 2.683-3.857 10.796-2.02 15.877z"/></g><g><path fill="#fff" d="M149.363 72.152c-.244 1.786.796 4.143 1.723 4.22.173.014 2.598-2.256 3.488-2.72 3.083-1.616 7.649-2.12 11.426-2.453-.416-2.015-.84-3.957-1.724-4.97-4.113-4.688-14.264 1.262-14.913 5.923z"/></g><g><path fill="#fff" d="M164.417 90.42a1.335 1.335 0 0 1-2.669-.006c0-.74.593-1.334 1.337-1.328.738 0 1.332.6 1.332 1.333zm-6.403-15.387c-1.7.492-4.273 2.219-5.804 3.15 2.936 8.164 7.634 16.153 14.25 21.804 1.694-4.154 3.07-18.017-.045-26.474-.206.018-.877.038-1.092.063-2.468.283-4.928.75-7.309 1.457z"/></g><g><path fill="#fff" d="M147.715 78.371c-1.281-.262-1.368.439-4.448-.998-2.272 5.066-.297 5.827-1.306 10.414 3.03 1.716 3.649 2.375 7.321 3.852.096-6.602.505-7.488-1.567-13.267z"/></g></g><g><path fill="#fff" d="M85.12 53.048c-.878-.34-1.7-.267-2.541-.444.223-.04.46.041.668-.085-2.527-.12-4.994-.977-7.264.393-.25.156-.428.469-.689.609-.61.318-1.688.146-2.178.364.044-.082.11-.042.163-.104-1.56.047-4.453 1.11-6.17 2.908-.92.966-1.285 2.234-.408 3.09.149.06.268-.14.424-.053.34-1.854 2.154-2.493 3.457-2.63.592.301 1.158.327 1.649-.18.409.32.759.15 1.13.11.694.9 1.694.413 2.459-.157-.615 1.567-2.11.963-3.285 2.1-1.078 1.06-1.283 2.509-2.513 2.981-.355.136-.786.096-1.09.14-.037.777 1.1 1.15 1.722 1.103.491-.023.913-.422 1.464-.614.984-.36 2.26-.134 3.504-.029 1.092.09 2.413-.121 3.453-.368 2.491-.594 4.714-.831 6.787-1.748-.63 1.899-1.544 3.593-1.591 5.428-3.083-.431-5.886 1.219-8.756 2.427.223-.24-.304-.594-.518-.695-.24-.114-.678-.065-.803.065-.498.475.073 1.094.453 1.476-.09.249-.445.093-.395.308-1.128-.958-2.101-2.643-2.038-4.134-.36 1.379.442 3.133 1.935 4.285-.692.6-1.092 1.451-1.78 1.803-3.006-1.925-4.213-5.015-4.262-7.736-.129 2.626 1.047 5.82 4.236 7.877-.178.181-.208.75-.34.64.122-.318-.218.014-.195.15-3.054-2.372-6.132-2.183-8.899-1.314 2.662-.625 5.709-1.009 8.912 1.404-.42.705-.569.85-1.025 1.633-1.59-.894-3.07-.962-4.466-.399.734-.087 1.478-.087 2.2-.206.637.346 1.834.277 2.103 1.007-.497.045-1.088-.379-1.44.105-.294.393.014.946.718 1.23-.237.815-.594 1.538-.543 2.384-.147.093-.027-.19-.12-.24-.578 2.231-.494 4.628.04 6.844-1.561.62-2.898 2.069-4.23 3.333a6.916 6.916 0 0 0-.08-.59c.149-.207.08.056.149.11.156-2.311-.21-4.379-.641-6.545.066-1.812-.403-3.546-1.367-5.216.167-.252-.105-.437-.172-.661-.335-1.006.432-2.769-.438-3.67-.245-.236-.743-.615-1.087-.46.46.94.453 1.997-.305 2.952-.4.513-.95.897-1.262 1.451-.34.609-.245 1.178-.27 1.837-.192-.114-.28-.326-.629-.558.082-.433.105-.695-.112-1.148.165-.337.268-.459.335-.725a2.771 2.771 0 0 0-.29-.906c.19-1.288.58-2.51 1.768-3.478.23-.078.656-.107.73-.355-.722-.745-2.01-.216-2.79.581-1.032 1.02-1.842 2.681-2.328 4.192-.487 1.533-.436 3.133-.695 4.154.101.066.155.269.194.453-1.243 2.035-.647 3.975.177 5.963.63 1.516 1.122 2.674 2.058 3.927-.19 2.821 5.174 5.79 7.22 4.492.109-.026.23.034.357.116.14-.328.482-.15.654-.55 1.271.138 2.427-1.268 3.475-1.873.293-.2.284-.588.585-.452.005-.298.436-.383.346-.65.2.126.098-.03.371-.086.033-.533.364-.181.245-.725.045 0 .076-.014.112-.025a5.394 5.394 0 0 0 1.5 1.462c.618.406 1.205.589 1.78.618-1.71.925-3.405 1.924-5.048 3.424-.5-.031-.946.297-1.459.195 2.202 2.035 6.624-1.5 9.202-4.384 1.093-.574 2.201-1.33 3.43-1.812-3.531 2.492-6.974 8.528-4.468 11.429.208-4.42 3.524-8.48 7.232-12.11.35-.061.705-.11 1.062-.186-2.06 2.043-3.143 5.62-1.21 7.477 2.257 2.17 5.596.998 7.962-.674-2.194.936-4.707-.63-7.071-1.059.437-2.029 2.216-4.239 1.886-6.172.977-.377 1.948-1.007 2.951-2.216 1.17-1.404 1.681-2.628 1.883-3.791 1.954-.095 3.56-2.81 5.464-3.343-.01 1.237.965 2.35 2.183 3.433.35.795-.149 2.955.627 2.88 1.351-3.047.324-8.103-4.039-8.136-1.217.604-3.01 1.65-4.147 3-.007-.22-.021-.452-.034-.673 2.473-4.24 5.41-8.178 9.415-9.398-3.143-1.484-7.59 2.352-9.44 6.209a.32.32 0 0 0 .016-.096c.065-.524.206-1.107.35-1.721 2.266-3.685 5.009-9.14 2.041-10.796.506 2.1-.78 4.44-1.605 6.727-.123-.767-.446-1.49-1.076-2.095-.558-.532-1.255-.885-1.978-1.112 1.353-1.26 2.282-3.013 2.697-4.643.182-.096-.038.223.09.286.32-.658.624-1.68.49-2.42-.094-.176-.156-.13-.335-.258.286-1.444.052-2.638-.808-3.868.185-.1.192.243.326.163-1.152-1.989-4.504-4.063-6.116-2.956zm-7.842-.352c.089-.138.913-.226 1.295-.293"/></g><g><path fill="#fff" d="M136.327 156.818c4.331 6.335 22.032-3.634 22.693-4.446-3.078 14.033-14.977 3.486-18.362 10.781 2.261.343 6.619-.17 10.273.75-3.149 2.714-8.249 2.408-13.46 1.908 6.073 10.003 19.618 5.79 24.21-3.297 2.013-3.997 1.241-7.96 2.276-12.18 2.168 2.589.734 5.03-.114 9.446 4.855-2.78 3.308-8.892 3.456-12.814 1.964 2.612 1.823 4.084.952 8.524 3.166-3.475 2.846-7.952 1.534-11.345.399-.971 3.62 5.513 3.015 6.803-.355.75 2.618-4.113-.86-12.185-1.31-3.035 2.436-7.718 1.179-9.925-2.071-1.706-1.732 1.134-2.888 1.24.668-1.96.34-3.278-.999-3.948-1.295-.59-1.279 1.224-1.827 1.808-.76-.73-1.388-2.957-2.914-3.214-4.194 1.661 2.118 6.919 2.444 10.227.4 4.024-3.205 4.92-6.68 6.743-2.59-2.603-5.049-6.415-9.45-8.022-9.224-3.383-18.09.514-19.557 11.24 3.51-2.559 5.898-5.253 11.322-5.946-1.812 3.06-5.984 4.973-7.47 6.942 8.807 3.042 9.03-11.874 21.407-2.024-22.597 1.124-21.802 9.164-21.802 9.017-5.855-1.339-7.924-5.694-9.499-9.787-.773 3.977 3.356 10.65 9.731 12.079-3.268 3.433-4.875 7.473-2.208 12.336-.468-7.321 3.485-10.867 3.598-10.711z"/></g><g><path fill="#fff" d="M61.252 132.157a1.285 1.285 0 0 1 .55-2.513c.692.156 1.138.841.982 1.531a1.293 1.293 0 0 1-1.532.982zm40.413 35.468c-.489-.714-1.3-1.249-1.971-1.767-1.752-1.375-3.649-2.578-5.736-3.39-1.822-.699-4.31-.907-5.605-2.552-1.203-1.53-2.082-3.393-2.997-5.105.305.12.843.453.767.13-.61-.212-1.256-2.457-1.263-2.975-.01-.505-.246-.904-.194-1.482-.319-.255-.55-1.067-.558-1.475-.007-.916-.764-2.144-.221-3.02.431-.695-.53-1.35-.015-2.105-.327-.192-.164-.835-.045-1.094-.259-.145-.217-.437-.12-.663.111-.277.254-1.154.104-1.43-.156-.291.045-1.199-.156-1.295-.482-.24-1.054-.346-1.59-.442-1.414-.282-2.854-.248-4.267-.509-.527-.096-1.502-.161-1.754-.73-.105-.237-3.553-3.616-4.689-4.658a50.476 50.476 0 0 0-3.05-2.594 41.229 41.229 0 0 0-4.718-3.167c-1.585-.912-3.181-1.787-4.951-2.256-.734-.19-2.32-.976-2.968-.362-.49.47 1.132 4.734 1.054 5.39-.116-.42-1.953-5.127-2.621-4.598-.72.574-.297 2.175-.19 2.904.273 1.924.947 3.792 1.514 5.654.906 2.977 2.303 5.807 4.265 8.234.292.352.522.453.418.92-.083.419-.172.838-.239 1.254a15.29 15.29 0 0 0-.192 1.743c-.067 1.217-.076 2.623.497 3.732.224-.248.661-.587.764-.897.062-.166.524-.976.747-1.12.43-.255.534-.934.891-1.381.29-.356-.656-1.44-.833-1.856 1.525 1.727 3.174 3.325 4.69 5.057 6.185 7.05 15.416 11.096 15.715 11.113.547.322 1.601.512 2.029.965-.098-.105-.225-.643-.27-.768 2.853 2.406 2.678 5.845 3.51 9.194.394 1.56.847 3.126 1.463 4.624.284.68.603 1.393 1.176 1.884.475.415 1.107.448.944-.36.223.067.067-1.486.096-1.645.098-.52.186-1.412-.036-1.89.438-.266-.142-1.118.143-1.42.043-.046.08-.513.101-.615.06-.297.127-.492.022-.82.26.04.186-.187.148-.377.397.292.182-.52.156-.6.113.156.227.19.335.096.008-.137-.148-.358-.052-.483.58.101.03-.298.232-.486.2-.18.862.223.862-.304.223-.122.743.462.446-.203.067.041.848.41.623-.031.536.197 1.16-.094 1.74.09.29.097 1.175.227 1.487.133.364-.107 3.694.578 3.68.447.622.236 1.144.04.682-.64z"/></g></g></g></svg>