<svg xmlns="http://www.w3.org/2000/svg" width="60" height="60" viewBox="0 0 60 60"><defs><clipPath id="nzfea"><path fill="#fff" d="M0 30C0 13.431 13.431 0 30 0c16.569 0 30 13.431 30 30 0 16.569-13.431 30-30 30C13.431 60 0 46.569 0 30z"/></clipPath></defs><g><g><g><path fill="#dfb405" d="M42 24l-12 7.5L18 24v-3l12 7.5L42 21zm0-6H18a2.996 2.996 0 0 0-2.985 3L15 39c0 1.65 1.35 3 3 3h24c1.65 0 3-1.35 3-3V21c0-1.65-1.35-3-3-3z"/></g></g><g><path fill="none" stroke="#dfb405" stroke-miterlimit="20" stroke-width="4" d="M0 30C0 13.431 13.431 0 30 0c16.569 0 30 13.431 30 30 0 16.569-13.431 30-30 30C13.431 60 0 46.569 0 30z" clip-path="url(&quot;#nzfea&quot;)"/></g></g></svg>