<svg xmlns="http://www.w3.org/2000/svg" width="52" height="52" viewBox="0 0 52 52"><g><g><path fill="#fff" d="M30.77 25.913a4.668 4.668 0 0 0-4.663-4.663 4.668 4.668 0 0 0-4.662 4.663 4.667 4.667 0 0 0 4.662 4.662 4.668 4.668 0 0 0 4.663-4.662zm4.475-7.466c0 .923-.75 1.674-1.673 1.674-.922 0-1.673-.751-1.673-1.674 0-.922.75-1.672 1.673-1.672s1.673.75 1.673 1.672zm-1.966 7.466c0 3.954-3.218 7.171-7.172 7.171-3.954 0-7.171-3.217-7.171-7.171 0-3.955 3.217-7.172 7.17-7.172 3.955 0 7.173 3.217 7.173 7.172zm1.074 10.903a4.722 4.722 0 0 0 2.658-2.658c.627-1.574.592-4.987.569-7.248-.004-.364-.007-.707-.007-.997 0-.29.003-.633.007-.999.023-2.257.058-5.668-.569-7.247a4.726 4.726 0 0 0-2.658-2.658c-1.311-.518-3.95-.578-5.823-.578-.514 0-1.009.005-1.446.01-.356.003-.693.006-.977.006-.29 0-.632-.004-.996-.007-.446-.005-.95-.01-1.475-.01-1.853 0-4.466.06-5.774.579a4.726 4.726 0 0 0-2.659 2.658c-.623 1.58-.59 5.005-.569 7.275.004.354.007.688.007.97 0 .289-.004.63-.007.996-.023 2.258-.058 5.67.57 7.25a4.722 4.722 0 0 0 2.658 2.658c1.312.519 3.957.578 5.832.578.512 0 1.005-.004 1.442-.008.354-.004.688-.007.97-.007.289 0 .63.003.996.007.445.005.95.01 1.474.01 1.853 0 4.468-.06 5.777-.58zm-2.478-24.791c2.622.132 4.43.828 5.86 2.259 1.439 1.433 2.135 3.24 2.26 5.862.131 2.317.131 9.216 0 11.534-.132 2.623-.829 4.43-2.26 5.86-1.433 1.44-3.24 2.137-5.86 2.26-1.074.061-3.285.099-5.771.099-2.486 0-4.697-.038-5.77-.1-2.617-.13-4.424-.826-5.862-2.258-1.438-1.433-2.134-3.24-2.259-5.86-.132-2.32-.132-9.223 0-11.542.132-2.628.83-4.435 2.26-5.86 1.438-1.435 3.246-2.13 5.86-2.254 1.069-.06 3.28-.099 5.771-.099s4.702.038 5.77.099zm4.31 37.747a25.807 25.807 0 0 0 8.23-5.55A25.807 25.807 0 0 0 52 25.913a25.807 25.807 0 0 0-7.584-18.31A25.807 25.807 0 0 0 26.106.02a25.807 25.807 0 0 0-18.31 7.584 25.807 25.807 0 0 0-7.584 18.31 25.807 25.807 0 0 0 7.584 18.31 25.807 25.807 0 0 0 18.31 7.584c3.496 0 6.887-.685 10.079-2.035z"/></g></g></svg>