<svg xmlns="http://www.w3.org/2000/svg" width="52" height="53" viewBox="0 0 52 53"><g><g><path fill="#fff" d="M22.959 23.274v-3.989c0-4.41 2.556-7.044 6.838-7.044 1.963 0 4.036.351 4.052.354v4.456h-2.282c-2.568 0-2.951 1.77-2.951 2.827v3.396h5.022l-.803 5.234h-4.22V41.16H22.96V28.508H18.36v-5.234zM36.185 50.56a25.807 25.807 0 0 0 8.23-5.55A25.807 25.807 0 0 0 52 26.7a25.807 25.807 0 0 0-7.584-18.31A25.807 25.807 0 0 0 26.106.808 25.807 25.807 0 0 0 7.796 8.39 25.807 25.807 0 0 0 .212 26.7a25.807 25.807 0 0 0 7.584 18.31 25.807 25.807 0 0 0 18.31 7.583c3.496 0 6.887-.684 10.079-2.034z"/></g></g></svg>