<svg xmlns="http://www.w3.org/2000/svg" width="60" height="60" viewBox="0 0 60 60"><defs><clipPath id="oep4a"><path fill="#fff" d="M0 30C0 13.431 13.431 0 30 0c16.569 0 30 13.431 30 30 0 16.569-13.431 30-30 30C13.431 60 0 46.569 0 30z"/></clipPath></defs><g><g><g><path fill="#dfb405" d="M32.292 33.124h-4.583c-.254 0-.459-.223-.459-.5v-4c0-.276.205-.5.459-.5h4.583c.253 0 .458.224.458.5v4c0 .277-.205.5-.458.5zM30 18.966l-11 9.6v14.558c0 .553.41 1 .917 1h7.333v-6.5c0-.276.205-.5.459-.5h4.583c.253 0 .458.224.458.5v6.5h7.333c.507 0 .917-.447.917-1V28.566z"/></g><g><path fill="#dfb405" d="M44.647 28.219l-14.062-12a.892.892 0 0 0-1.17 0l-6.915 5.9V19.5c0-.276-.21-.5-.468-.5h-1.875c-.26 0-.47.224-.47.5v5.019l-4.335 3.7c-.404.345-.47.974-.147 1.406a.898.898 0 0 0 1.318.156L30 18.28l13.476 11.5a.898.898 0 0 0 1.318-.155 1.046 1.046 0 0 0-.146-1.406z"/></g></g><g><path fill="none" stroke="#dfb405" stroke-miterlimit="20" stroke-width="4" d="M0 30C0 13.431 13.431 0 30 0c16.569 0 30 13.431 30 30 0 16.569-13.431 30-30 30C13.431 60 0 46.569 0 30z" clip-path="url(&quot;#oep4a&quot;)"/></g></g></svg>