<svg xmlns="http://www.w3.org/2000/svg" width="60" height="60" viewBox="0 0 60 60"><defs><clipPath id="wkkia"><path fill="#fff" d="M0 30C0 13.431 13.431 0 30 0c16.569 0 30 13.431 30 30 0 16.569-13.431 30-30 30C13.431 60 0 46.569 0 30z"/></clipPath></defs><g><g><g><path fill="#dfb405" d="M44 29a1 1 0 0 1-1-1c-.007-6.072-4.928-10.993-11-11a1 1 0 0 1 0-2c7.176.008 12.992 5.824 13 13a1 1 0 0 1-1 1z"/></g><g><path fill="#dfb405" d="M38 29a1 1 0 0 1-1-1 5.006 5.006 0 0 0-5-5 1 1 0 1 1 0-2 7.008 7.008 0 0 1 7 7 1 1 0 0 1-1 1z"/></g><g><path fill="#dfb405" d="M35.028 33.528l-2.445 3.057a25.8 25.8 0 0 1-9.168-9.168l3.057-2.445c.736-.59.982-1.602.6-2.464l-2.786-6.273a2.076 2.076 0 0 0-2.421-1.168l-5.3 1.376a2.088 2.088 0 0 0-1.545 2.307 30.815 30.815 0 0 0 26.23 26.23 2.088 2.088 0 0 0 2.306-1.542l1.376-5.3a2.077 2.077 0 0 0-1.167-2.419l-6.273-2.789a2.077 2.077 0 0 0-2.464.598z"/></g></g><g><path fill="none" stroke="#dfb405" stroke-miterlimit="20" stroke-width="4" d="M0 30C0 13.431 13.431 0 30 0c16.569 0 30 13.431 30 30 0 16.569-13.431 30-30 30C13.431 60 0 46.569 0 30z" clip-path="url(&quot;#wkkia&quot;)"/></g></g></svg>